<?xml version="1.0" encoding="utf-8"?>
<!-- Generator: Adobe Illustrator 28.0.0, SVG Export Plug-In . SVG Version: 6.00 Build 0)  -->
<svg version="1.1"
	 id="Layer_1" xmlns:rdf="http://www.w3.org/1999/02/22-rdf-syntax-ns#" xmlns:sodipodi="http://sodipodi.sourceforge.net/DTD/sodipodi-0.dtd" xmlns:inkscape="http://www.inkscape.org/namespaces/inkscape" xmlns:cc="http://creativecommons.org/ns#" xmlns:svg="http://www.w3.org/2000/svg" xmlns:dc="http://purl.org/dc/elements/1.1/"
	 xmlns="http://www.w3.org/2000/svg" xmlns:xlink="http://www.w3.org/1999/xlink" x="0px" y="0px" viewBox="0 0 5 8.5"
	 style="enable-background:new 0 0 5 8.5;" xml:space="preserve">
<g>
	<path d="M2.5,0C1.6,0,0.9,0.7,0.9,1.6v0.1h1c0.4,0,0.4,0.5,0,0.5h-1v0.5h1c0.4,0,0.4,0.5,0,0.5h-1v0.1C0.9,4.3,1.6,5,2.5,5
		s1.6-0.7,1.6-1.6V3.3h-1c-0.4,0-0.4-0.5,0-0.5h1V2.3h-1c-0.4,0-0.4-0.5,0-0.5h1V1.6C4.1,0.7,3.4,0,2.5,0z M0.3,3.3
		C0.1,3.3,0,3.4,0,3.6c0,0,0,0,0,0c0.1,1.3,1.2,2.3,2.5,2.3s2.4-1,2.5-2.3c0-0.1-0.1-0.3-0.2-0.3c-0.1,0-0.3,0.1-0.3,0.2
		c-0.1,1-1,1.8-2,1.8s-1.9-0.8-2-1.8C0.5,3.4,0.4,3.3,0.3,3.3z M3.5,6.3c-0.3,0.1-0.6,0.2-1,0.2c-0.3,0-0.7-0.1-1-0.2v0.4
		C1.6,6.9,1.7,7,1.8,7h0.4v0.9H1.3c0,0,0,0,0,0c-0.1,0-0.3,0.1-0.2,0.3c0,0.1,0.1,0.2,0.3,0.2h2.4C3.8,8.5,4,8.4,4,8.2
		c0-0.1-0.1-0.3-0.3-0.3c0,0,0,0,0,0H2.8V7h0.4c0.1,0,0.3-0.1,0.3-0.3V6.3z"/>
</g>
</svg>
